<?xml version="1.0" encoding="utf-8"?>
<!-- Generator: Adobe Illustrator 21.0.2, SVG Export Plug-In . SVG Version: 6.00 Build 0)  -->
<svg version="1.1" id="Layer_1" xmlns="http://www.w3.org/2000/svg" xmlns:xlink="http://www.w3.org/1999/xlink" x="0px" y="0px"
	 viewBox="0 0 303.8 405" style="enable-background:new 0 0 303.8 405;" xml:space="preserve">
<style type="text/css">
	.st0{fill:url(#SVGID_1_);stroke:#000000;stroke-width:0.25;stroke-miterlimit:10;}
	.st1{fill:url(#SVGID_2_);stroke:#000000;stroke-width:0.25;stroke-miterlimit:10;}
	.st2{stroke:#000000;stroke-miterlimit:10;}
	.st3{fill:#D9E47E;}
	.st4{opacity:0.6;fill:#FFFEFF;stroke:#000000;stroke-miterlimit:10;enable-background:new    ;}
	.st5{fill:#D9E47E;stroke:#000000;stroke-miterlimit:10;}
	.st6{font-family:'Oswald-Regular';}
	.st7{font-size:14.0625px;}
	.st8{opacity:0.75;fill:#FFFEFF;stroke:#000000;stroke-miterlimit:10;enable-background:new    ;}
	.st9{font-family:'PalanquinDark-Regular';}
	.st10{font-size:15.5692px;}
	.st11{fill:#FFFEFF;stroke:#000000;stroke-miterlimit:10;}
	.st12{fill:#3E3E3E;}
	.st13{fill:#121212;}
	.st14{fill:url(#SVGID_3_);stroke:#000000;stroke-width:0.25;stroke-miterlimit:10;}
	.st15{fill:url(#SVGID_4_);stroke:#000000;stroke-width:0.25;stroke-miterlimit:10;}
	.st16{fill:url(#SVGID_5_);stroke:#000000;stroke-width:0.25;stroke-miterlimit:10;}
	.st17{fill:url(#SVGID_6_);stroke:#000000;stroke-width:0.25;stroke-miterlimit:10;}
	.st18{fill:url(#SVGID_7_);stroke:#000000;stroke-width:0.25;stroke-miterlimit:10;}
	.st19{fill:url(#SVGID_8_);stroke:#000000;stroke-width:0.25;stroke-miterlimit:10;}
	.st20{fill:#051715;stroke:#000000;stroke-width:0.25;stroke-miterlimit:10;}
	.st21{fill:url(#SVGID_9_);stroke:#000000;stroke-width:0.25;stroke-miterlimit:10;}
	.st22{fill:#3953A4;stroke:#000000;stroke-width:0.25;stroke-miterlimit:10;}
	.st23{fill:none;stroke:#000000;stroke-width:0.25;stroke-miterlimit:10;}
	.st24{fill:#D9E47E;stroke:#000000;stroke-width:0.25;stroke-miterlimit:10;}
</style>
<linearGradient id="SVGID_1_" gradientUnits="userSpaceOnUse" x1="511.5602" y1="516.4548" x2="523.3862" y2="516.4548" gradientTransform="matrix(-1 0 0 -1 711.3515 668)">
	<stop  offset="0" style="stop-color:#FFFFFF"/>
	<stop  offset="0.1327" style="stop-color:#FFF9D6"/>
	<stop  offset="0.3673" style="stop-color:#FFF093"/>
	<stop  offset="0.5799" style="stop-color:#FFE85D"/>
	<stop  offset="0.7628" style="stop-color:#FFE337"/>
	<stop  offset="0.9089" style="stop-color:#FFDF20"/>
	<stop  offset="1" style="stop-color:#FFDE17"/>
</linearGradient>
<path class="st0" d="M199.7,150.8l-11.8,4.8l2.5-7c0.3-0.3,4.2-2,7.3,0C198.8,149.3,199.4,150.2,199.7,150.8z"/>
<linearGradient id="SVGID_2_" gradientUnits="userSpaceOnUse" x1="102.1613" y1="516.4548" x2="113.9873" y2="516.4548" gradientTransform="matrix(1 0 0 -1 0 668)">
	<stop  offset="0" style="stop-color:#FFFFFF"/>
	<stop  offset="7.359968e-02" style="stop-color:#FFF9D6"/>
	<stop  offset="0.2037" style="stop-color:#FFF093"/>
	<stop  offset="0.3215" style="stop-color:#FFE85D"/>
	<stop  offset="0.4229" style="stop-color:#FFE337"/>
	<stop  offset="0.504" style="stop-color:#FFDF20"/>
	<stop  offset="0.5545" style="stop-color:#FFDE17"/>
</linearGradient>
<path class="st1" d="M102.1,150.8l11.8,4.8l-2.5-7c-0.3-0.3-4.2-2-7.3,0C103.2,149.3,102.7,150.2,102.1,150.8z"/>
<rect class="st2" width="303.8" height="405"/>
<rect x="10.1" y="11.3" class="st3" width="283.5" height="373.5"/>
<rect x="36.6" y="244.7" class="st4" width="232.9" height="140.1"/>
<path class="st5" d="M250.6,374.9h43c0.8,0.6,3.9,3.7,4.5,8.4c0.6,6.5-3.9,10.7-4.5,11.3c-14.3,0-28.7,0-43,0
	c-5.6-0.3-9.8-4.8-9.6-10.1C241,379.4,245.2,375.2,250.6,374.9z"/>
<text transform="matrix(1 0 0 1 258.1465 390.374)" class="st6 st7">2 / 1</text>
<rect x="36.6" y="11.3" class="st8" width="232.9" height="31.8"/>
<text transform="matrix(1.313 0 0 1 89.4531 31.8613)" class="st9 st10">Drone Type A</text>
<rect x="36.6" y="43" class="st11" width="232.9" height="201.7"/>
<text transform="matrix(1 0 0 1 41.25 270)" class="st9 st7">Gather(</text>
<text transform="matrix(1 0 0 1 87.9375 270)" class="st12 st9 st7">gain 1 spice of this card’s </text>
<text transform="matrix(1 0 0 1 41.25 286.875)" class="st12 st9 st7">color but, the land becomes barren</text>
<text transform="matrix(1 0 0 1 261.4688 286.875)" class="st13 st9 st7">.</text>
<text transform="matrix(1 0 0 1 263.7188 286.875)" class="st9 st7">)</text>
<text transform="matrix(1 0 0 1 41.25 320.625)" class="st12 st9 st7">“Drones like this are useful in a </text>
<text transform="matrix(1 0 0 1 41.25 337.5)" class="st12 st9 st7">pinch but, they are a dime a dozen </text>
<text transform="matrix(1 0 0 1 41.25 354.375)" class="st12 st9 st7">and can’t take a hit.”</text>
<text transform="matrix(1 0 0 1 167.5313 354.375)" class="st9 st7"> </text>
<linearGradient id="SVGID_3_" gradientUnits="userSpaceOnUse" x1="53.8127" y1="489.8281" x2="90.8685" y2="489.8281" gradientTransform="matrix(1 0 0 -1 0 668)">
	<stop  offset="0" style="stop-color:#FFDE17"/>
	<stop  offset="0.1476" style="stop-color:#FFDF1B"/>
	<stop  offset="0.281" style="stop-color:#FFE026"/>
	<stop  offset="0.4088" style="stop-color:#FFE338"/>
	<stop  offset="0.5333" style="stop-color:#FFE652"/>
	<stop  offset="0.6554" style="stop-color:#FFEB73"/>
	<stop  offset="0.7756" style="stop-color:#FFF19C"/>
	<stop  offset="0.892" style="stop-color:#FFF8CC"/>
	<stop  offset="1" style="stop-color:#FFFFFF"/>
</linearGradient>
<path class="st14" d="M53.7,197.2c6.8-4.8,14.3-11.3,21.9-19.4c6.2-6.5,11-12.9,14.9-18.6c-3.7,0-9,0.6-15.2,2.8
	c-10.1,3.9-16.3,11-18.8,14.3C56,183.1,54.8,190.1,53.7,197.2z"/>
<linearGradient id="SVGID_4_" gradientUnits="userSpaceOnUse" x1="56.6069" y1="528.7664" x2="111.4945" y2="528.7664" gradientTransform="matrix(1 0 0 -1 0 668)">
	<stop  offset="0" style="stop-color:#FFDE17"/>
	<stop  offset="0.1476" style="stop-color:#FFDF1B"/>
	<stop  offset="0.281" style="stop-color:#FFE026"/>
	<stop  offset="0.4088" style="stop-color:#FFE338"/>
	<stop  offset="0.5333" style="stop-color:#FFE652"/>
	<stop  offset="0.6554" style="stop-color:#FFEB73"/>
	<stop  offset="0.7756" style="stop-color:#FFF19C"/>
	<stop  offset="0.892" style="stop-color:#FFF8CC"/>
	<stop  offset="1" style="stop-color:#FFFFFF"/>
</linearGradient>
<path class="st15" d="M56.5,175.8c0.6-10.1,2.8-27,12.4-44.7c4.8-9,10.1-16,14.9-21.1c1.7-1.7,5.3-4.8,11-6.5
	c4.2-1.1,7.9-0.8,10.1-0.6c0,0.6,0.3,1.7-0.3,3.1c-0.8,2.8-3.4,3.7-3.9,3.9c2.2,1.7,5.3,4.5,8.2,9c1.4,2.2,2.3,4.5,2.8,6.5
	c0,1.4,0,2.5,0,3.9c-1.4,0.8-2.5,2.3-3.9,3.9c-4.5,6.2-3.7,13.2-3.4,15.5c-1.4,1.7-3.4,3.4-5.9,5.3c-2.8,2.2-5.6,3.7-7.9,4.8
	c-3.7,0-11.5,0.3-19.7,4.8C63.3,167.6,58.8,172.7,56.5,175.8z"/>
<linearGradient id="SVGID_5_" gradientUnits="userSpaceOnUse" x1="61.6474" y1="528.7664" x2="116.5347" y2="528.7664" gradientTransform="matrix(-1 0 0 -1 304.5 668)">
	<stop  offset="0" style="stop-color:#FFFFFF"/>
	<stop  offset="1" style="stop-color:#FFDE17"/>
</linearGradient>
<path class="st16" d="M242.7,175.8c-0.6-10.1-2.8-27-12.4-44.7c-4.8-9-10.1-16-14.9-21.1c-1.7-1.7-5.3-4.8-11-6.5
	c-4.2-1.1-7.9-0.8-10.1-0.6c0,0.6-0.3,1.7,0.3,3.1c0.8,2.8,3.4,3.7,3.9,3.9c-2.3,1.7-5.3,4.5-8.2,9c-1.4,2.2-2.3,4.5-2.8,6.5
	c0,1.4,0,2.5,0,3.9c1.4,0.8,2.5,2.3,3.9,3.9c4.5,6.2,3.7,13.2,3.4,15.5c1.4,1.7,3.4,3.4,5.9,5.3c2.8,2.2,5.6,3.7,7.9,4.8
	c3.7,0,11.5,0.3,19.7,4.8C236.3,167.6,240.8,172.7,242.7,175.8z"/>
<linearGradient id="SVGID_6_" gradientUnits="userSpaceOnUse" x1="185.6372" y1="489.8281" x2="222.6933" y2="489.8281" gradientTransform="matrix(-1 0 0 -1 431.8333 668)">
	<stop  offset="0" style="stop-color:#FFFFFF"/>
	<stop  offset="1" style="stop-color:#FFDE17"/>
</linearGradient>
<path class="st17" d="M246.1,197.2c-6.8-4.8-14.3-11.3-21.9-19.4c-6.2-6.5-11-12.9-14.9-18.6c3.7,0,9,0.6,15.2,2.8
	c10.1,3.9,16.3,11,18.8,14.3C244.1,183.1,245.2,190.1,246.1,197.2z"/>
<linearGradient id="SVGID_7_" gradientUnits="userSpaceOnUse" x1="103.8839" y1="528.9219" x2="195.568" y2="528.9219" gradientTransform="matrix(1 0 0 -1 0 668)">
	<stop  offset="0" style="stop-color:#FFFFFF"/>
	<stop  offset="0.1327" style="stop-color:#FFF9D6"/>
	<stop  offset="0.3673" style="stop-color:#FFF093"/>
	<stop  offset="0.5799" style="stop-color:#FFE85D"/>
	<stop  offset="0.7628" style="stop-color:#FFE337"/>
	<stop  offset="0.9089" style="stop-color:#FFDF20"/>
	<stop  offset="1" style="stop-color:#FFDE17"/>
</linearGradient>
<path class="st18" d="M111.4,129.4h76.5c1.4,1.1,4.8,3.9,6.5,9c1.7,4.8,1.1,8.7,0.8,10.4c-30.4,0-60.8,0-90.8,0
	c-0.3-1.7-1.1-6.8,1.4-12.1C107.4,132.8,110,130.5,111.4,129.4z"/>
<linearGradient id="SVGID_8_" gradientUnits="userSpaceOnUse" x1="607.75" y1="365.7" x2="607.75" y2="365.7" gradientTransform="matrix(1 0 0 -1 0 668)">
	<stop  offset="0" style="stop-color:#FFDE17"/>
	<stop  offset="0.2683" style="stop-color:#FFDE19"/>
	<stop  offset="0.4095" style="stop-color:#FFDF21"/>
	<stop  offset="0.5212" style="stop-color:#FFE12F"/>
	<stop  offset="0.6174" style="stop-color:#FFE442"/>
	<stop  offset="0.7036" style="stop-color:#FFE85B"/>
	<stop  offset="0.7827" style="stop-color:#FFEC79"/>
	<stop  offset="0.8564" style="stop-color:#FFF19E"/>
	<stop  offset="0.9258" style="stop-color:#FFF7C8"/>
	<stop  offset="0.9894" style="stop-color:#FFFEF6"/>
	<stop  offset="1" style="stop-color:#FFFFFF"/>
</linearGradient>
<path class="st19" d="M607.8,302.3"/>
<polygon class="st20" points="131.9,124 126.6,106.3 131.9,94.8 139.8,124 "/>
<polygon class="st20" points="169.3,124 174.7,106.3 169.3,94.8 161.7,124 "/>
<linearGradient id="SVGID_9_" gradientUnits="userSpaceOnUse" x1="126.6415" y1="531.875" x2="172.7665" y2="531.875" gradientTransform="matrix(1 0 0 -1 0 668)">
	<stop  offset="0" style="stop-color:#FFFFFF"/>
	<stop  offset="1" style="stop-color:#FFF200"/>
</linearGradient>
<circle class="st21" cx="149.6" cy="136.1" r="23.1"/>
<circle class="st20" cx="149.6" cy="136.1" r="5.6"/>
<circle class="st22" cx="149.6" cy="136.1" r="3.1"/>
<line class="st23" x1="155.3" y1="133" x2="169.3" y2="124"/>
<circle class="st24" cx="249.5" cy="27.3" r="11.8"/>
<text transform="matrix(1 0 0 1 246.1963 31.8613)" class="st9 st7">1</text>
</svg>
